<svg xmlns="http://www.w3.org/2000/svg" viewBox="0 0 79.79 79.79"><defs><style>.cls-1{fill:#1a1a1a;}</style></defs><g id="Layer_2" data-name="Layer 2"><g id="Layer_1-2" data-name="Layer 1"><polygon class="cls-1" points="17.91 46.56 31.74 46.56 24.82 35.23 17.91 46.56"/><path class="cls-1" d="M39.9,0A39.9,39.9,0,1,0,79.79,39.9,39.9,39.9,0,0,0,39.9,0ZM10.19,50.9l14.63-24,14.64,24Zm41.49-9.4H46.4v9.4H42.19v-21H46.4v7.31h5.28Zm2.6-14.6h3.41a12.29,12.29,0,0,1,2,.18l-1.1,6.22a5.52,5.52,0,0,0-1-.09H54.28Zm3.42,24H54.29V44.58H57.6a5.89,5.89,0,0,0,1-.09l1.16,6.21A12.21,12.21,0,0,1,57.7,50.89ZM64.41,29a11.8,11.8,0,0,1,3,3l-5.17,3.63a5.72,5.72,0,0,0-1.43-1.43Zm.08,19.71-3.63-5.17a5.72,5.72,0,0,0,1.43-1.43l5.2,3.58A12.13,12.13,0,0,1,64.49,48.72ZM63.2,39.88a5.52,5.52,0,0,0,.09-1,5.07,5.07,0,0,0-.1-1l6.21-1.14a11.23,11.23,0,0,1,.2,2.17A12.29,12.29,0,0,1,69.42,41Z"/></g></g></svg>