<svg xmlns="http://www.w3.org/2000/svg" viewBox="0 0 120 120"><defs><style>.cls-1{fill:#003a4c;}</style></defs><g id="Layer_2" data-name="Layer 2"><g id="Layer_1-2" data-name="Layer 1"><polygon class="cls-1" points="26.94 68.52 47.73 68.52 37.33 51.47 26.94 68.52"/><path class="cls-1" d="M60,0a60,60,0,1,0,60,60A60,60,0,0,0,60,0ZM15.33,75l22-36.1,22,36.1ZM77.72,60.9H69.78V75H63.45V43.46h6.33v11h7.94Zm3.91-22h5.13a17.89,17.89,0,0,1,3,.27l-1.65,9.35a8.22,8.22,0,0,0-1.48-.13h-5ZM86.77,75H81.64v-9.5h5a9,9,0,0,0,1.55-.14l1.73,9.34A18.34,18.34,0,0,1,86.77,75ZM96.86,42.12a17.89,17.89,0,0,1,4.55,4.51l-7.78,5.46a8.78,8.78,0,0,0-2.15-2.15ZM97,71.77,91.53,64a8.57,8.57,0,0,0,2.14-2.15l7.83,5.39A18.22,18.22,0,0,1,97,71.77Zm-1.93-13.3A9.37,9.37,0,0,0,95.18,57,8.93,8.93,0,0,0,95,55.43l9.34-1.72a17.91,17.91,0,0,1,.29,3.27,18.41,18.41,0,0,1-.27,3.14Z"/></g></g></svg>