<svg xmlns="http://www.w3.org/2000/svg" viewBox="0 0 59.41 24"><defs><style>.cls-1,.cls-2{fill:#f7f5f4;}.cls-2{fill-rule:evenodd;}</style></defs><g id="Layer_2" data-name="Layer 2"><g id="Layer_1-2" data-name="Layer 1"><g id="Logo"><g id="D"><path class="cls-1" d="M47.41,17.69H44.1V24h3.41a12,12,0,0,0,2.08-.2l-1.15-6.21A5.89,5.89,0,0,1,47.41,17.69Z"/><path class="cls-1" d="M50.67,16.66l3.63,5.17a12.3,12.3,0,0,0,3-3l-5.2-3.59A5.93,5.93,0,0,1,50.67,16.66Z"/><path class="cls-1" d="M59.21,9.82,53,11a5,5,0,0,1,.1,1A5.63,5.63,0,0,1,53,13l6.22,1.09A12.2,12.2,0,0,0,59.41,12,11.31,11.31,0,0,0,59.21,9.82Z"/><path class="cls-1" d="M52.07,8.74l5.17-3.63a12.13,12.13,0,0,0-3-3L50.64,7.32A5.84,5.84,0,0,1,52.07,8.74Z"/><path class="cls-1" d="M47.41,6.31a5.52,5.52,0,0,1,1,.09L49.49.18a13.26,13.26,0,0,0-2-.18H44.09V6.31Z"/></g><polygon id="t" class="cls-2" points="32 3 32 24 36.21 24 36.21 14.6 41.49 14.6 41.49 10.31 36.21 10.31 36.21 3 32 3"/><path id="A" class="cls-2" d="M14.63,8.33l6.92,11.33H7.72Zm0-8.33L0,24H29.27Z"/></g></g></g></svg>