<?xml version="1.0" encoding="UTF-8"?>
<svg width="340px" height="64px" viewBox="0 0 340 64" version="1.1" xmlns="http://www.w3.org/2000/svg" xmlns:xlink="http://www.w3.org/1999/xlink">
    <title>Halftone</title>
    <g id="Symbols" stroke="none" stroke-width="1" fill="none" fill-rule="evenodd" opacity="0.200000003">
        <path d="M3.17238679,57.6576577 C4.92444764,57.6576577 6.34477359,59.0774394 6.34477359,60.8288288 C6.34477359,62.5802183 4.92444764,64 3.17238679,64 C1.42032595,64 -1.56319402e-13,62.5802183 -1.56319402e-13,60.8288288 C-1.56319402e-13,59.0774394 1.42032595,57.6576577 3.17238679,57.6576577 Z M26.2442907,57.6576577 C27.9963516,57.6576577 29.4166775,59.0774394 29.4166775,60.8288288 C29.4166775,62.5802183 27.9963516,64 26.2442907,64 C24.4922299,64 23.071904,62.5802183 23.071904,60.8288288 C23.071904,59.0774394 24.4922299,57.6576577 26.2442907,57.6576577 Z M14.7083388,57.6576577 C16.4603996,57.6576577 17.8807256,59.0774394 17.8807256,60.8288288 C17.8807256,62.5802183 16.4603996,64 14.7083388,64 C12.9562779,64 11.535952,62.5802183 11.535952,60.8288288 C11.535952,59.0774394 12.9562779,57.6576577 14.7083388,57.6576577 Z M49.3161947,57.6576577 C51.0682555,57.6576577 52.4885815,59.0774394 52.4885815,60.8288288 C52.4885815,62.5802183 51.0682555,64 49.3161947,64 C47.5641339,64 46.1438079,62.5802183 46.1438079,60.8288288 C46.1438079,59.0774394 47.5641339,57.6576577 49.3161947,57.6576577 Z M37.7802427,57.6576577 C39.5323036,57.6576577 40.9526295,59.0774394 40.9526295,60.8288288 C40.9526295,62.5802183 39.5323036,64 37.7802427,64 C36.0281819,64 34.6078559,62.5802183 34.6078559,60.8288288 C34.6078559,59.0774394 36.0281819,57.6576577 37.7802427,57.6576577 Z M60.8521467,57.6576577 C62.6042075,57.6576577 64.0245335,59.0774394 64.0245335,60.8288288 C64.0245335,62.5802183 62.6042075,64 60.8521467,64 C59.1000858,64 57.6797599,62.5802183 57.6797599,60.8288288 C57.6797599,59.0774394 59.1000858,57.6576577 60.8521467,57.6576577 Z M130.067859,57.6576577 C131.819919,57.6576577 133.240245,59.0774394 133.240245,60.8288288 C133.240245,62.5802183 131.819919,64 130.067859,64 C128.315798,64 126.895472,62.5802183 126.895472,60.8288288 C126.895472,59.0774394 128.315798,57.6576577 130.067859,57.6576577 Z M106.995955,57.6576577 C108.748015,57.6576577 110.168341,59.0774394 110.168341,60.8288288 C110.168341,62.5802183 108.748015,64 106.995955,64 C105.243894,64 103.823568,62.5802183 103.823568,60.8288288 C103.823568,59.0774394 105.243894,57.6576577 106.995955,57.6576577 Z M118.531907,57.6576577 C120.283967,57.6576577 121.704293,59.0774394 121.704293,60.8288288 C121.704293,62.5802183 120.283967,64 118.531907,64 C116.779846,64 115.35952,62.5802183 115.35952,60.8288288 C115.35952,59.0774394 116.779846,57.6576577 118.531907,57.6576577 Z M83.9240506,57.6576577 C85.6761115,57.6576577 87.0964374,59.0774394 87.0964374,60.8288288 C87.0964374,62.5802183 85.6761115,64 83.9240506,64 C82.1719898,64 80.7516638,62.5802183 80.7516638,60.8288288 C80.7516638,59.0774394 82.1719898,57.6576577 83.9240506,57.6576577 Z M95.4600026,57.6576577 C97.2120635,57.6576577 98.6323894,59.0774394 98.6323894,60.8288288 C98.6323894,62.5802183 97.2120635,64 95.4600026,64 C93.7079418,64 92.2876158,62.5802183 92.2876158,60.8288288 C92.2876158,59.0774394 93.7079418,57.6576577 95.4600026,57.6576577 Z M72.3880987,57.6576577 C74.1401595,57.6576577 75.5604854,59.0774394 75.5604854,60.8288288 C75.5604854,62.5802183 74.1401595,64 72.3880987,64 C70.6360378,64 69.2157119,62.5802183 69.2157119,60.8288288 C69.2157119,59.0774394 70.6360378,57.6576577 72.3880987,57.6576577 Z M164.675714,57.6576577 C166.427775,57.6576577 167.848101,59.0774394 167.848101,60.8288288 C167.848101,62.5802183 166.427775,64 164.675714,64 C162.923654,64 161.503328,62.5802183 161.503328,60.8288288 C161.503328,59.0774394 162.923654,57.6576577 164.675714,57.6576577 Z M153.139762,57.6576577 C154.891823,57.6576577 156.312149,59.0774394 156.312149,60.8288288 C156.312149,62.5802183 154.891823,64 153.139762,64 C151.387702,64 149.967376,62.5802183 149.967376,60.8288288 C149.967376,59.0774394 151.387702,57.6576577 153.139762,57.6576577 Z M187.747618,57.6576577 C189.499679,57.6576577 190.920005,59.0774394 190.920005,60.8288288 C190.920005,62.5802183 189.499679,64 187.747618,64 C185.995558,64 184.575232,62.5802183 184.575232,60.8288288 C184.575232,59.0774394 185.995558,57.6576577 187.747618,57.6576577 Z M176.211666,57.6576577 C177.963727,57.6576577 179.384053,59.0774394 179.384053,60.8288288 C179.384053,62.5802183 177.963727,64 176.211666,64 C174.459606,64 173.03928,62.5802183 173.03928,60.8288288 C173.03928,59.0774394 174.459606,57.6576577 176.211666,57.6576577 Z M199.28357,57.6576577 C201.035631,57.6576577 202.455957,59.0774394 202.455957,60.8288288 C202.455957,62.5802183 201.035631,64 199.28357,64 C197.53151,64 196.111184,62.5802183 196.111184,60.8288288 C196.111184,59.0774394 197.53151,57.6576577 199.28357,57.6576577 Z M141.603811,57.6576577 C143.355871,57.6576577 144.776197,59.0774394 144.776197,60.8288288 C144.776197,62.5802183 143.355871,64 141.603811,64 C139.85175,64 138.431424,62.5802183 138.431424,60.8288288 C138.431424,59.0774394 139.85175,57.6576577 141.603811,57.6576577 Z M233.004045,57.6576577 C234.756106,57.6576577 236.176432,59.0774394 236.176432,60.8288288 C236.176432,62.5802183 234.756106,64 233.004045,64 C231.251985,64 229.831659,62.5802183 229.831659,60.8288288 C229.831659,59.0774394 231.251985,57.6576577 233.004045,57.6576577 Z M221.468093,57.6576577 C223.220154,57.6576577 224.64048,59.0774394 224.64048,60.8288288 C224.64048,62.5802183 223.220154,64 221.468093,64 C219.716033,64 218.295707,62.5802183 218.295707,60.8288288 C218.295707,59.0774394 219.716033,57.6576577 221.468093,57.6576577 Z M256.075949,57.6576577 C257.82801,57.6576577 259.248336,59.0774394 259.248336,60.8288288 C259.248336,62.5802183 257.82801,64 256.075949,64 C254.323889,64 252.903563,62.5802183 252.903563,60.8288288 C252.903563,59.0774394 254.323889,57.6576577 256.075949,57.6576577 Z M244.539997,57.6576577 C246.292058,57.6576577 247.712384,59.0774394 247.712384,60.8288288 C247.712384,62.5802183 246.292058,64 244.539997,64 C242.787937,64 241.367611,62.5802183 241.367611,60.8288288 C241.367611,59.0774394 242.787937,57.6576577 244.539997,57.6576577 Z M267.611901,57.6576577 C269.363962,57.6576577 270.784288,59.0774394 270.784288,60.8288288 C270.784288,62.5802183 269.363962,64 267.611901,64 C265.85984,64 264.439515,62.5802183 264.439515,60.8288288 C264.439515,59.0774394 265.85984,57.6576577 267.611901,57.6576577 Z M209.932141,57.6576577 C211.684202,57.6576577 213.104528,59.0774394 213.104528,60.8288288 C213.104528,62.5802183 211.684202,64 209.932141,64 C208.180081,64 206.759755,62.5802183 206.759755,60.8288288 C206.759755,59.0774394 208.180081,57.6576577 209.932141,57.6576577 Z M302.219757,57.6576577 C303.971818,57.6576577 305.392144,59.0774394 305.392144,60.8288288 C305.392144,62.5802183 303.971818,64 302.219757,64 C300.467696,64 299.04737,62.5802183 299.04737,60.8288288 C299.04737,59.0774394 300.467696,57.6576577 302.219757,57.6576577 Z M290.683805,57.6576577 C292.435866,57.6576577 293.856192,59.0774394 293.856192,60.8288288 C293.856192,62.5802183 292.435866,64 290.683805,64 C288.931744,64 287.511419,62.5802183 287.511419,60.8288288 C287.511419,59.0774394 288.931744,57.6576577 290.683805,57.6576577 Z M325.291661,57.6576577 C327.043722,57.6576577 328.464048,59.0774394 328.464048,60.8288288 C328.464048,62.5802183 327.043722,64 325.291661,64 C323.5396,64 322.119274,62.5802183 322.119274,60.8288288 C322.119274,59.0774394 323.5396,57.6576577 325.291661,57.6576577 Z M313.755709,57.6576577 C315.50777,57.6576577 316.928096,59.0774394 316.928096,60.8288288 C316.928096,62.5802183 315.50777,64 313.755709,64 C312.003648,64 310.583322,62.5802183 310.583322,60.8288288 C310.583322,59.0774394 312.003648,57.6576577 313.755709,57.6576577 Z M336.827613,57.6576577 C338.579674,57.6576577 340,59.0774394 340,60.8288288 C340,62.5802183 338.579674,64 336.827613,64 C335.075552,64 333.655226,62.5802183 333.655226,60.8288288 C333.655226,59.0774394 335.075552,57.6576577 336.827613,57.6576577 Z M279.147853,57.6576577 C280.899914,57.6576577 282.32024,59.0774394 282.32024,60.8288288 C282.32024,62.5802183 280.899914,64 279.147853,64 C277.395792,64 275.975467,62.5802183 275.975467,60.8288288 C275.975467,59.0774394 277.395792,57.6576577 279.147853,57.6576577 Z M83.9240506,46.1261261 C85.6761115,46.1261261 87.0964374,47.5459078 87.0964374,49.2972973 C87.0964374,51.0486868 85.6761115,52.4684685 83.9240506,52.4684685 C82.1719898,52.4684685 80.7516638,51.0486868 80.7516638,49.2972973 C80.7516638,47.5459078 82.1719898,46.1261261 83.9240506,46.1261261 Z M118.531907,46.1261261 C120.283967,46.1261261 121.704293,47.5459078 121.704293,49.2972973 C121.704293,51.0486868 120.283967,52.4684685 118.531907,52.4684685 C116.779846,52.4684685 115.35952,51.0486868 115.35952,49.2972973 C115.35952,47.5459078 116.779846,46.1261261 118.531907,46.1261261 Z M106.995955,46.1261261 C108.748015,46.1261261 110.168341,47.5459078 110.168341,49.2972973 C110.168341,51.0486868 108.748015,52.4684685 106.995955,52.4684685 C105.243894,52.4684685 103.823568,51.0486868 103.823568,49.2972973 C103.823568,47.5459078 105.243894,46.1261261 106.995955,46.1261261 Z M130.067859,46.1261261 C131.819919,46.1261261 133.240245,47.5459078 133.240245,49.2972973 C133.240245,51.0486868 131.819919,52.4684685 130.067859,52.4684685 C128.315798,52.4684685 126.895472,51.0486868 126.895472,49.2972973 C126.895472,47.5459078 128.315798,46.1261261 130.067859,46.1261261 Z M72.3880987,46.1261261 C74.1401595,46.1261261 75.5604854,47.5459078 75.5604854,49.2972973 C75.5604854,51.0486868 74.1401595,52.4684685 72.3880987,52.4684685 C70.6360378,52.4684685 69.2157119,51.0486868 69.2157119,49.2972973 C69.2157119,47.5459078 70.6360378,46.1261261 72.3880987,46.1261261 Z M95.4600026,46.1261261 C97.2120635,46.1261261 98.6323894,47.5459078 98.6323894,49.2972973 C98.6323894,51.0486868 97.2120635,52.4684685 95.4600026,52.4684685 C93.7079418,52.4684685 92.2876158,51.0486868 92.2876158,49.2972973 C92.2876158,47.5459078 93.7079418,46.1261261 95.4600026,46.1261261 Z M3.17238679,46.1261261 C4.92444764,46.1261261 6.34477359,47.5459078 6.34477359,49.2972973 C6.34477359,51.0486868 4.92444764,52.4684685 3.17238679,52.4684685 C1.42032595,52.4684685 -1.56319402e-13,51.0486868 -1.56319402e-13,49.2972973 C-1.56319402e-13,47.5459078 1.42032595,46.1261261 3.17238679,46.1261261 Z M26.2442907,46.1261261 C27.9963516,46.1261261 29.4166775,47.5459078 29.4166775,49.2972973 C29.4166775,51.0486868 27.9963516,52.4684685 26.2442907,52.4684685 C24.4922299,52.4684685 23.071904,51.0486868 23.071904,49.2972973 C23.071904,47.5459078 24.4922299,46.1261261 26.2442907,46.1261261 Z M14.7083388,46.1261261 C16.4603996,46.1261261 17.8807256,47.5459078 17.8807256,49.2972973 C17.8807256,51.0486868 16.4603996,52.4684685 14.7083388,52.4684685 C12.9562779,52.4684685 11.535952,51.0486868 11.535952,49.2972973 C11.535952,47.5459078 12.9562779,46.1261261 14.7083388,46.1261261 Z M49.3161947,46.1261261 C51.0682555,46.1261261 52.4885815,47.5459078 52.4885815,49.2972973 C52.4885815,51.0486868 51.0682555,52.4684685 49.3161947,52.4684685 C47.5641339,52.4684685 46.1438079,51.0486868 46.1438079,49.2972973 C46.1438079,47.5459078 47.5641339,46.1261261 49.3161947,46.1261261 Z M37.7802427,46.1261261 C39.5323036,46.1261261 40.9526295,47.5459078 40.9526295,49.2972973 C40.9526295,51.0486868 39.5323036,52.4684685 37.7802427,52.4684685 C36.0281819,52.4684685 34.6078559,51.0486868 34.6078559,49.2972973 C34.6078559,47.5459078 36.0281819,46.1261261 37.7802427,46.1261261 Z M209.932141,46.1261261 C211.684202,46.1261261 213.104528,47.5459078 213.104528,49.2972973 C213.104528,51.0486868 211.684202,52.4684685 209.932141,52.4684685 C208.180081,52.4684685 206.759755,51.0486868 206.759755,49.2972973 C206.759755,47.5459078 208.180081,46.1261261 209.932141,46.1261261 Z M233.004045,46.1261261 C234.756106,46.1261261 236.176432,47.5459078 236.176432,49.2972973 C236.176432,51.0486868 234.756106,52.4684685 233.004045,52.4684685 C231.251985,52.4684685 229.831659,51.0486868 229.831659,49.2972973 C229.831659,47.5459078 231.251985,46.1261261 233.004045,46.1261261 Z M221.468093,46.1261261 C223.220154,46.1261261 224.64048,47.5459078 224.64048,49.2972973 C224.64048,51.0486868 223.220154,52.4684685 221.468093,52.4684685 C219.716033,52.4684685 218.295707,51.0486868 218.295707,49.2972973 C218.295707,47.5459078 219.716033,46.1261261 221.468093,46.1261261 Z M256.075949,46.1261261 C257.82801,46.1261261 259.248336,47.5459078 259.248336,49.2972973 C259.248336,51.0486868 257.82801,52.4684685 256.075949,52.4684685 C254.323889,52.4684685 252.903563,51.0486868 252.903563,49.2972973 C252.903563,47.5459078 254.323889,46.1261261 256.075949,46.1261261 Z M141.603811,46.1261261 C143.355871,46.1261261 144.776197,47.5459078 144.776197,49.2972973 C144.776197,51.0486868 143.355871,52.4684685 141.603811,52.4684685 C139.85175,52.4684685 138.431424,51.0486868 138.431424,49.2972973 C138.431424,47.5459078 139.85175,46.1261261 141.603811,46.1261261 Z M267.611901,46.1261261 C269.363962,46.1261261 270.784288,47.5459078 270.784288,49.2972973 C270.784288,51.0486868 269.363962,52.4684685 267.611901,52.4684685 C265.85984,52.4684685 264.439515,51.0486868 264.439515,49.2972973 C264.439515,47.5459078 265.85984,46.1261261 267.611901,46.1261261 Z M60.8521467,46.1261261 C62.6042075,46.1261261 64.0245335,47.5459078 64.0245335,49.2972973 C64.0245335,51.0486868 62.6042075,52.4684685 60.8521467,52.4684685 C59.1000858,52.4684685 57.6797599,51.0486868 57.6797599,49.2972973 C57.6797599,47.5459078 59.1000858,46.1261261 60.8521467,46.1261261 Z M199.28357,46.1261261 C201.035631,46.1261261 202.455957,47.5459078 202.455957,49.2972973 C202.455957,51.0486868 201.035631,52.4684685 199.28357,52.4684685 C197.53151,52.4684685 196.111184,51.0486868 196.111184,49.2972973 C196.111184,47.5459078 197.53151,46.1261261 199.28357,46.1261261 Z M176.211666,46.1261261 C177.963727,46.1261261 179.384053,47.5459078 179.384053,49.2972973 C179.384053,51.0486868 177.963727,52.4684685 176.211666,52.4684685 C174.459606,52.4684685 173.03928,51.0486868 173.03928,49.2972973 C173.03928,47.5459078 174.459606,46.1261261 176.211666,46.1261261 Z M187.747618,46.1261261 C189.499679,46.1261261 190.920005,47.5459078 190.920005,49.2972973 C190.920005,51.0486868 189.499679,52.4684685 187.747618,52.4684685 C185.995558,52.4684685 184.575232,51.0486868 184.575232,49.2972973 C184.575232,47.5459078 185.995558,46.1261261 187.747618,46.1261261 Z M153.139762,46.1261261 C154.891823,46.1261261 156.312149,47.5459078 156.312149,49.2972973 C156.312149,51.0486868 154.891823,52.4684685 153.139762,52.4684685 C151.387702,52.4684685 149.967376,51.0486868 149.967376,49.2972973 C149.967376,47.5459078 151.387702,46.1261261 153.139762,46.1261261 Z M164.675714,46.1261261 C166.427775,46.1261261 167.848101,47.5459078 167.848101,49.2972973 C167.848101,51.0486868 166.427775,52.4684685 164.675714,52.4684685 C162.923654,52.4684685 161.503328,51.0486868 161.503328,49.2972973 C161.503328,47.5459078 162.923654,46.1261261 164.675714,46.1261261 Z M279.147853,46.1261261 C280.899914,46.1261261 282.32024,47.5459078 282.32024,49.2972973 C282.32024,51.0486868 280.899914,52.4684685 279.147853,52.4684685 C277.395792,52.4684685 275.975467,51.0486868 275.975467,49.2972973 C275.975467,47.5459078 277.395792,46.1261261 279.147853,46.1261261 Z M302.219757,46.1261261 C303.971818,46.1261261 305.392144,47.5459078 305.392144,49.2972973 C305.392144,51.0486868 303.971818,52.4684685 302.219757,52.4684685 C300.467696,52.4684685 299.04737,51.0486868 299.04737,49.2972973 C299.04737,47.5459078 300.467696,46.1261261 302.219757,46.1261261 Z M290.683805,46.1261261 C292.435866,46.1261261 293.856192,47.5459078 293.856192,49.2972973 C293.856192,51.0486868 292.435866,52.4684685 290.683805,52.4684685 C288.931744,52.4684685 287.511419,51.0486868 287.511419,49.2972973 C287.511419,47.5459078 288.931744,46.1261261 290.683805,46.1261261 Z M325.291661,46.1261261 C327.043722,46.1261261 328.464048,47.5459078 328.464048,49.2972973 C328.464048,51.0486868 327.043722,52.4684685 325.291661,52.4684685 C323.5396,52.4684685 322.119274,51.0486868 322.119274,49.2972973 C322.119274,47.5459078 323.5396,46.1261261 325.291661,46.1261261 Z M313.755709,46.1261261 C315.50777,46.1261261 316.928096,47.5459078 316.928096,49.2972973 C316.928096,51.0486868 315.50777,52.4684685 313.755709,52.4684685 C312.003648,52.4684685 310.583322,51.0486868 310.583322,49.2972973 C310.583322,47.5459078 312.003648,46.1261261 313.755709,46.1261261 Z M336.827613,46.1261261 C338.579674,46.1261261 340,47.5459078 340,49.2972973 C340,51.0486868 338.579674,52.4684685 336.827613,52.4684685 C335.075552,52.4684685 333.655226,51.0486868 333.655226,49.2972973 C333.655226,47.5459078 335.075552,46.1261261 336.827613,46.1261261 Z M244.539997,46.1261261 C246.292058,46.1261261 247.712384,47.5459078 247.712384,49.2972973 C247.712384,51.0486868 246.292058,52.4684685 244.539997,52.4684685 C242.787937,52.4684685 241.367611,51.0486868 241.367611,49.2972973 C241.367611,47.5459078 242.787937,46.1261261 244.539997,46.1261261 Z M95.4600026,34.5945946 C97.2120635,34.5945946 98.6323894,36.0143763 98.6323894,37.7657658 C98.6323894,39.5171552 97.2120635,40.9369369 95.4600026,40.9369369 C93.7079418,40.9369369 92.2876158,39.5171552 92.2876158,37.7657658 C92.2876158,36.0143763 93.7079418,34.5945946 95.4600026,34.5945946 Z M83.9240506,34.5945946 C85.6761115,34.5945946 87.0964374,36.0143763 87.0964374,37.7657658 C87.0964374,39.5171552 85.6761115,40.9369369 83.9240506,40.9369369 C82.1719898,40.9369369 80.7516638,39.5171552 80.7516638,37.7657658 C80.7516638,36.0143763 82.1719898,34.5945946 83.9240506,34.5945946 Z M118.531907,34.5945946 C120.283967,34.5945946 121.704293,36.0143763 121.704293,37.7657658 C121.704293,39.5171552 120.283967,40.9369369 118.531907,40.9369369 C116.779846,40.9369369 115.35952,39.5171552 115.35952,37.7657658 C115.35952,36.0143763 116.779846,34.5945946 118.531907,34.5945946 Z M106.995955,34.5945946 C108.748015,34.5945946 110.168341,36.0143763 110.168341,37.7657658 C110.168341,39.5171552 108.748015,40.9369369 106.995955,40.9369369 C105.243894,40.9369369 103.823568,39.5171552 103.823568,37.7657658 C103.823568,36.0143763 105.243894,34.5945946 106.995955,34.5945946 Z M130.067859,34.5945946 C131.819919,34.5945946 133.240245,36.0143763 133.240245,37.7657658 C133.240245,39.5171552 131.819919,40.9369369 130.067859,40.9369369 C128.315798,40.9369369 126.895472,39.5171552 126.895472,37.7657658 C126.895472,36.0143763 128.315798,34.5945946 130.067859,34.5945946 Z M72.3880987,34.5945946 C74.1401595,34.5945946 75.5604854,36.0143763 75.5604854,37.7657658 C75.5604854,39.5171552 74.1401595,40.9369369 72.3880987,40.9369369 C70.6360378,40.9369369 69.2157119,39.5171552 69.2157119,37.7657658 C69.2157119,36.0143763 70.6360378,34.5945946 72.3880987,34.5945946 Z M209.932141,34.5945946 C211.684202,34.5945946 213.104528,36.0143763 213.104528,37.7657658 C213.104528,39.5171552 211.684202,40.9369369 209.932141,40.9369369 C208.180081,40.9369369 206.759755,39.5171552 206.759755,37.7657658 C206.759755,36.0143763 208.180081,34.5945946 209.932141,34.5945946 Z M233.004045,34.5945946 C234.756106,34.5945946 236.176432,36.0143763 236.176432,37.7657658 C236.176432,39.5171552 234.756106,40.9369369 233.004045,40.9369369 C231.251985,40.9369369 229.831659,39.5171552 229.831659,37.7657658 C229.831659,36.0143763 231.251985,34.5945946 233.004045,34.5945946 Z M221.468093,34.5945946 C223.220154,34.5945946 224.64048,36.0143763 224.64048,37.7657658 C224.64048,39.5171552 223.220154,40.9369369 221.468093,40.9369369 C219.716033,40.9369369 218.295707,39.5171552 218.295707,37.7657658 C218.295707,36.0143763 219.716033,34.5945946 221.468093,34.5945946 Z M256.075949,34.5945946 C257.82801,34.5945946 259.248336,36.0143763 259.248336,37.7657658 C259.248336,39.5171552 257.82801,40.9369369 256.075949,40.9369369 C254.323889,40.9369369 252.903563,39.5171552 252.903563,37.7657658 C252.903563,36.0143763 254.323889,34.5945946 256.075949,34.5945946 Z M244.539997,34.5945946 C246.292058,34.5945946 247.712384,36.0143763 247.712384,37.7657658 C247.712384,39.5171552 246.292058,40.9369369 244.539997,40.9369369 C242.787937,40.9369369 241.367611,39.5171552 241.367611,37.7657658 C241.367611,36.0143763 242.787937,34.5945946 244.539997,34.5945946 Z M267.611901,34.5945946 C269.363962,34.5945946 270.784288,36.0143763 270.784288,37.7657658 C270.784288,39.5171552 269.363962,40.9369369 267.611901,40.9369369 C265.85984,40.9369369 264.439515,39.5171552 264.439515,37.7657658 C264.439515,36.0143763 265.85984,34.5945946 267.611901,34.5945946 Z M336.827613,34.5945946 C338.579674,34.5945946 340,36.0143763 340,37.7657658 C340,39.5171552 338.579674,40.9369369 336.827613,40.9369369 C335.075552,40.9369369 333.655226,39.5171552 333.655226,37.7657658 C333.655226,36.0143763 335.075552,34.5945946 336.827613,34.5945946 Z M313.755709,34.5945946 C315.50777,34.5945946 316.928096,36.0143763 316.928096,37.7657658 C316.928096,39.5171552 315.50777,40.9369369 313.755709,40.9369369 C312.003648,40.9369369 310.583322,39.5171552 310.583322,37.7657658 C310.583322,36.0143763 312.003648,34.5945946 313.755709,34.5945946 Z M325.291661,34.5945946 C327.043722,34.5945946 328.464048,36.0143763 328.464048,37.7657658 C328.464048,39.5171552 327.043722,40.9369369 325.291661,40.9369369 C323.5396,40.9369369 322.119274,39.5171552 322.119274,37.7657658 C322.119274,36.0143763 323.5396,34.5945946 325.291661,34.5945946 Z M290.683805,34.5945946 C292.435866,34.5945946 293.856192,36.0143763 293.856192,37.7657658 C293.856192,39.5171552 292.435866,40.9369369 290.683805,40.9369369 C288.931744,40.9369369 287.511419,39.5171552 287.511419,37.7657658 C287.511419,36.0143763 288.931744,34.5945946 290.683805,34.5945946 Z M302.219757,34.5945946 C303.971818,34.5945946 305.392144,36.0143763 305.392144,37.7657658 C305.392144,39.5171552 303.971818,40.9369369 302.219757,40.9369369 C300.467696,40.9369369 299.04737,39.5171552 299.04737,37.7657658 C299.04737,36.0143763 300.467696,34.5945946 302.219757,34.5945946 Z M279.147853,34.5945946 C280.899914,34.5945946 282.32024,36.0143763 282.32024,37.7657658 C282.32024,39.5171552 280.899914,40.9369369 279.147853,40.9369369 C277.395792,40.9369369 275.975467,39.5171552 275.975467,37.7657658 C275.975467,36.0143763 277.395792,34.5945946 279.147853,34.5945946 Z M60.8521467,34.5945946 C62.6042075,34.5945946 64.0245335,36.0143763 64.0245335,37.7657658 C64.0245335,39.5171552 62.6042075,40.9369369 60.8521467,40.9369369 C59.1000858,40.9369369 57.6797599,39.5171552 57.6797599,37.7657658 C57.6797599,36.0143763 59.1000858,34.5945946 60.8521467,34.5945946 Z M37.7802427,34.5945946 C39.5323036,34.5945946 40.9526295,36.0143763 40.9526295,37.7657658 C40.9526295,39.5171552 39.5323036,40.9369369 37.7802427,40.9369369 C36.0281819,40.9369369 34.6078559,39.5171552 34.6078559,37.7657658 C34.6078559,36.0143763 36.0281819,34.5945946 37.7802427,34.5945946 Z M49.3161947,34.5945946 C51.0682555,34.5945946 52.4885815,36.0143763 52.4885815,37.7657658 C52.4885815,39.5171552 51.0682555,40.9369369 49.3161947,40.9369369 C47.5641339,40.9369369 46.1438079,39.5171552 46.1438079,37.7657658 C46.1438079,36.0143763 47.5641339,34.5945946 49.3161947,34.5945946 Z M14.7083388,34.5945946 C16.4603996,34.5945946 17.8807256,36.0143763 17.8807256,37.7657658 C17.8807256,39.5171552 16.4603996,40.9369369 14.7083388,40.9369369 C12.9562779,40.9369369 11.535952,39.5171552 11.535952,37.7657658 C11.535952,36.0143763 12.9562779,34.5945946 14.7083388,34.5945946 Z M26.2442907,34.5945946 C27.9963516,34.5945946 29.4166775,36.0143763 29.4166775,37.7657658 C29.4166775,39.5171552 27.9963516,40.9369369 26.2442907,40.9369369 C24.4922299,40.9369369 23.071904,39.5171552 23.071904,37.7657658 C23.071904,36.0143763 24.4922299,34.5945946 26.2442907,34.5945946 Z M199.28357,34.5945946 C201.035631,34.5945946 202.455957,36.0143763 202.455957,37.7657658 C202.455957,39.5171552 201.035631,40.9369369 199.28357,40.9369369 C197.53151,40.9369369 196.111184,39.5171552 196.111184,37.7657658 C196.111184,36.0143763 197.53151,34.5945946 199.28357,34.5945946 Z M176.211666,34.5945946 C177.963727,34.5945946 179.384053,36.0143763 179.384053,37.7657658 C179.384053,39.5171552 177.963727,40.9369369 176.211666,40.9369369 C174.459606,40.9369369 173.03928,39.5171552 173.03928,37.7657658 C173.03928,36.0143763 174.459606,34.5945946 176.211666,34.5945946 Z M187.747618,34.5945946 C189.499679,34.5945946 190.920005,36.0143763 190.920005,37.7657658 C190.920005,39.5171552 189.499679,40.9369369 187.747618,40.9369369 C185.995558,40.9369369 184.575232,39.5171552 184.575232,37.7657658 C184.575232,36.0143763 185.995558,34.5945946 187.747618,34.5945946 Z M153.139762,34.5945946 C154.891823,34.5945946 156.312149,36.0143763 156.312149,37.7657658 C156.312149,39.5171552 154.891823,40.9369369 153.139762,40.9369369 C151.387702,40.9369369 149.967376,39.5171552 149.967376,37.7657658 C149.967376,36.0143763 151.387702,34.5945946 153.139762,34.5945946 Z M164.675714,34.5945946 C166.427775,34.5945946 167.848101,36.0143763 167.848101,37.7657658 C167.848101,39.5171552 166.427775,40.9369369 164.675714,40.9369369 C162.923654,40.9369369 161.503328,39.5171552 161.503328,37.7657658 C161.503328,36.0143763 162.923654,34.5945946 164.675714,34.5945946 Z M3.17238679,34.5945946 C4.92444764,34.5945946 6.34477359,36.0143763 6.34477359,37.7657658 C6.34477359,39.5171552 4.92444764,40.9369369 3.17238679,40.9369369 C1.42032595,40.9369369 -1.56319402e-13,39.5171552 -1.56319402e-13,37.7657658 C-1.56319402e-13,36.0143763 1.42032595,34.5945946 3.17238679,34.5945946 Z M141.603811,34.5945946 C143.355871,34.5945946 144.776197,36.0143763 144.776197,37.7657658 C144.776197,39.5171552 143.355871,40.9369369 141.603811,40.9369369 C139.85175,40.9369369 138.431424,39.5171552 138.431424,37.7657658 C138.431424,36.0143763 139.85175,34.5945946 141.603811,34.5945946 Z M164.675714,23.0630631 C166.427775,23.0630631 167.848101,24.4828448 167.848101,26.2342342 C167.848101,27.9856237 166.427775,29.4054054 164.675714,29.4054054 C162.923654,29.4054054 161.503328,27.9856237 161.503328,26.2342342 C161.503328,24.4828448 162.923654,23.0630631 164.675714,23.0630631 Z M199.28357,23.0630631 C201.035631,23.0630631 202.455957,24.4828448 202.455957,26.2342342 C202.455957,27.9856237 201.035631,29.4054054 199.28357,29.4054054 C197.53151,29.4054054 196.111184,27.9856237 196.111184,26.2342342 C196.111184,24.4828448 197.53151,23.0630631 199.28357,23.0630631 Z M153.139762,23.0630631 C154.891823,23.0630631 156.312149,24.4828448 156.312149,26.2342342 C156.312149,27.9856237 154.891823,29.4054054 153.139762,29.4054054 C151.387702,29.4054054 149.967376,27.9856237 149.967376,26.2342342 C149.967376,24.4828448 151.387702,23.0630631 153.139762,23.0630631 Z M176.211666,23.0630631 C177.963727,23.0630631 179.384053,24.4828448 179.384053,26.2342342 C179.384053,27.9856237 177.963727,29.4054054 176.211666,29.4054054 C174.459606,29.4054054 173.03928,27.9856237 173.03928,26.2342342 C173.03928,24.4828448 174.459606,23.0630631 176.211666,23.0630631 Z M141.603811,23.0630631 C143.355871,23.0630631 144.776197,24.4828448 144.776197,26.2342342 C144.776197,27.9856237 143.355871,29.4054054 141.603811,29.4054054 C139.85175,29.4054054 138.431424,27.9856237 138.431424,26.2342342 C138.431424,24.4828448 139.85175,23.0630631 141.603811,23.0630631 Z M3.17238679,23.0630631 C4.92444764,23.0630631 6.34477359,24.4828448 6.34477359,26.2342342 C6.34477359,27.9856237 4.92444764,29.4054054 3.17238679,29.4054054 C1.42032595,29.4054054 -1.56319402e-13,27.9856237 -1.56319402e-13,26.2342342 C-1.56319402e-13,24.4828448 1.42032595,23.0630631 3.17238679,23.0630631 Z M26.2442907,23.0630631 C27.9963516,23.0630631 29.4166775,24.4828448 29.4166775,26.2342342 C29.4166775,27.9856237 27.9963516,29.4054054 26.2442907,29.4054054 C24.4922299,29.4054054 23.071904,27.9856237 23.071904,26.2342342 C23.071904,24.4828448 24.4922299,23.0630631 26.2442907,23.0630631 Z M60.8521467,23.0630631 C62.6042075,23.0630631 64.0245335,24.4828448 64.0245335,26.2342342 C64.0245335,27.9856237 62.6042075,29.4054054 60.8521467,29.4054054 C59.1000858,29.4054054 57.6797599,27.9856237 57.6797599,26.2342342 C57.6797599,24.4828448 59.1000858,23.0630631 60.8521467,23.0630631 Z M14.7083388,23.0630631 C16.4603996,23.0630631 17.8807256,24.4828448 17.8807256,26.2342342 C17.8807256,27.9856237 16.4603996,29.4054054 14.7083388,29.4054054 C12.9562779,29.4054054 11.535952,27.9856237 11.535952,26.2342342 C11.535952,24.4828448 12.9562779,23.0630631 14.7083388,23.0630631 Z M37.7802427,23.0630631 C39.5323036,23.0630631 40.9526295,24.4828448 40.9526295,26.2342342 C40.9526295,27.9856237 39.5323036,29.4054054 37.7802427,29.4054054 C36.0281819,29.4054054 34.6078559,27.9856237 34.6078559,26.2342342 C34.6078559,24.4828448 36.0281819,23.0630631 37.7802427,23.0630631 Z M187.747618,23.0630631 C189.499679,23.0630631 190.920005,24.4828448 190.920005,26.2342342 C190.920005,27.9856237 189.499679,29.4054054 187.747618,29.4054054 C185.995558,29.4054054 184.575232,27.9856237 184.575232,26.2342342 C184.575232,24.4828448 185.995558,23.0630631 187.747618,23.0630631 Z M72.3880987,23.0630631 C74.1401595,23.0630631 75.5604854,24.4828448 75.5604854,26.2342342 C75.5604854,27.9856237 74.1401595,29.4054054 72.3880987,29.4054054 C70.6360378,29.4054054 69.2157119,27.9856237 69.2157119,26.2342342 C69.2157119,24.4828448 70.6360378,23.0630631 72.3880987,23.0630631 Z M106.995955,23.0630631 C108.748015,23.0630631 110.168341,24.4828448 110.168341,26.2342342 C110.168341,27.9856237 108.748015,29.4054054 106.995955,29.4054054 C105.243894,29.4054054 103.823568,27.9856237 103.823568,26.2342342 C103.823568,24.4828448 105.243894,23.0630631 106.995955,23.0630631 Z M83.9240506,23.0630631 C85.6761115,23.0630631 87.0964374,24.4828448 87.0964374,26.2342342 C87.0964374,27.9856237 85.6761115,29.4054054 83.9240506,29.4054054 C82.1719898,29.4054054 80.7516638,27.9856237 80.7516638,26.2342342 C80.7516638,24.4828448 82.1719898,23.0630631 83.9240506,23.0630631 Z M130.067859,23.0630631 C131.819919,23.0630631 133.240245,24.4828448 133.240245,26.2342342 C133.240245,27.9856237 131.819919,29.4054054 130.067859,29.4054054 C128.315798,29.4054054 126.895472,27.9856237 126.895472,26.2342342 C126.895472,24.4828448 128.315798,23.0630631 130.067859,23.0630631 Z M95.4600026,23.0630631 C97.2120635,23.0630631 98.6323894,24.4828448 98.6323894,26.2342342 C98.6323894,27.9856237 97.2120635,29.4054054 95.4600026,29.4054054 C93.7079418,29.4054054 92.2876158,27.9856237 92.2876158,26.2342342 C92.2876158,24.4828448 93.7079418,23.0630631 95.4600026,23.0630631 Z M118.531907,23.0630631 C120.283967,23.0630631 121.704293,24.4828448 121.704293,26.2342342 C121.704293,27.9856237 120.283967,29.4054054 118.531907,29.4054054 C116.779846,29.4054054 115.35952,27.9856237 115.35952,26.2342342 C115.35952,24.4828448 116.779846,23.0630631 118.531907,23.0630631 Z M209.932141,23.0630631 C211.684202,23.0630631 213.104528,24.4828448 213.104528,26.2342342 C213.104528,27.9856237 211.684202,29.4054054 209.932141,29.4054054 C208.180081,29.4054054 206.759755,27.9856237 206.759755,26.2342342 C206.759755,24.4828448 208.180081,23.0630631 209.932141,23.0630631 Z M244.539997,23.0630631 C246.292058,23.0630631 247.712384,24.4828448 247.712384,26.2342342 C247.712384,27.9856237 246.292058,29.4054054 244.539997,29.4054054 C242.787937,29.4054054 241.367611,27.9856237 241.367611,26.2342342 C241.367611,24.4828448 242.787937,23.0630631 244.539997,23.0630631 Z M221.468093,23.0630631 C223.220154,23.0630631 224.64048,24.4828448 224.64048,26.2342342 C224.64048,27.9856237 223.220154,29.4054054 221.468093,29.4054054 C219.716033,29.4054054 218.295707,27.9856237 218.295707,26.2342342 C218.295707,24.4828448 219.716033,23.0630631 221.468093,23.0630631 Z M267.611901,23.0630631 C269.363962,23.0630631 270.784288,24.4828448 270.784288,26.2342342 C270.784288,27.9856237 269.363962,29.4054054 267.611901,29.4054054 C265.85984,29.4054054 264.439515,27.9856237 264.439515,26.2342342 C264.439515,24.4828448 265.85984,23.0630631 267.611901,23.0630631 Z M233.004045,23.0630631 C234.756106,23.0630631 236.176432,24.4828448 236.176432,26.2342342 C236.176432,27.9856237 234.756106,29.4054054 233.004045,29.4054054 C231.251985,29.4054054 229.831659,27.9856237 229.831659,26.2342342 C229.831659,24.4828448 231.251985,23.0630631 233.004045,23.0630631 Z M256.075949,23.0630631 C257.82801,23.0630631 259.248336,24.4828448 259.248336,26.2342342 C259.248336,27.9856237 257.82801,29.4054054 256.075949,29.4054054 C254.323889,29.4054054 252.903563,27.9856237 252.903563,26.2342342 C252.903563,24.4828448 254.323889,23.0630631 256.075949,23.0630631 Z M279.147853,23.0630631 C280.899914,23.0630631 282.32024,24.4828448 282.32024,26.2342342 C282.32024,27.9856237 280.899914,29.4054054 279.147853,29.4054054 C277.395792,29.4054054 275.975467,27.9856237 275.975467,26.2342342 C275.975467,24.4828448 277.395792,23.0630631 279.147853,23.0630631 Z M313.755709,23.0630631 C315.50777,23.0630631 316.928096,24.4828448 316.928096,26.2342342 C316.928096,27.9856237 315.50777,29.4054054 313.755709,29.4054054 C312.003648,29.4054054 310.583322,27.9856237 310.583322,26.2342342 C310.583322,24.4828448 312.003648,23.0630631 313.755709,23.0630631 Z M290.683805,23.0630631 C292.435866,23.0630631 293.856192,24.4828448 293.856192,26.2342342 C293.856192,27.9856237 292.435866,29.4054054 290.683805,29.4054054 C288.931744,29.4054054 287.511419,27.9856237 287.511419,26.2342342 C287.511419,24.4828448 288.931744,23.0630631 290.683805,23.0630631 Z M336.827613,23.0630631 C338.579674,23.0630631 340,24.4828448 340,26.2342342 C340,27.9856237 338.579674,29.4054054 336.827613,29.4054054 C335.075552,29.4054054 333.655226,27.9856237 333.655226,26.2342342 C333.655226,24.4828448 335.075552,23.0630631 336.827613,23.0630631 Z M302.219757,23.0630631 C303.971818,23.0630631 305.392144,24.4828448 305.392144,26.2342342 C305.392144,27.9856237 303.971818,29.4054054 302.219757,29.4054054 C300.467696,29.4054054 299.04737,27.9856237 299.04737,26.2342342 C299.04737,24.4828448 300.467696,23.0630631 302.219757,23.0630631 Z M325.291661,23.0630631 C327.043722,23.0630631 328.464048,24.4828448 328.464048,26.2342342 C328.464048,27.9856237 327.043722,29.4054054 325.291661,29.4054054 C323.5396,29.4054054 322.119274,27.9856237 322.119274,26.2342342 C322.119274,24.4828448 323.5396,23.0630631 325.291661,23.0630631 Z M49.3161947,23.0630631 C51.0682555,23.0630631 52.4885815,24.4828448 52.4885815,26.2342342 C52.4885815,27.9856237 51.0682555,29.4054054 49.3161947,29.4054054 C47.5641339,29.4054054 46.1438079,27.9856237 46.1438079,26.2342342 C46.1438079,24.4828448 47.5641339,23.0630631 49.3161947,23.0630631 Z M130.067859,11.5315315 C131.819919,11.5315315 133.240245,12.9513132 133.240245,14.7027027 C133.240245,16.4540922 131.819919,17.8738739 130.067859,17.8738739 C128.315798,17.8738739 126.895472,16.4540922 126.895472,14.7027027 C126.895472,12.9513132 128.315798,11.5315315 130.067859,11.5315315 Z M313.755709,11.5315315 C315.50777,11.5315315 316.928096,12.9513132 316.928096,14.7027027 C316.928096,16.4540922 315.50777,17.8738739 313.755709,17.8738739 C312.003648,17.8738739 310.583322,16.4540922 310.583322,14.7027027 C310.583322,12.9513132 312.003648,11.5315315 313.755709,11.5315315 Z M325.291661,11.5315315 C327.043722,11.5315315 328.464048,12.9513132 328.464048,14.7027027 C328.464048,16.4540922 327.043722,17.8738739 325.291661,17.8738739 C323.5396,17.8738739 322.119274,16.4540922 322.119274,14.7027027 C322.119274,12.9513132 323.5396,11.5315315 325.291661,11.5315315 Z M290.683805,11.5315315 C292.435866,11.5315315 293.856192,12.9513132 293.856192,14.7027027 C293.856192,16.4540922 292.435866,17.8738739 290.683805,17.8738739 C288.931744,17.8738739 287.511419,16.4540922 287.511419,14.7027027 C287.511419,12.9513132 288.931744,11.5315315 290.683805,11.5315315 Z M302.219757,11.5315315 C303.971818,11.5315315 305.392144,12.9513132 305.392144,14.7027027 C305.392144,16.4540922 303.971818,17.8738739 302.219757,17.8738739 C300.467696,17.8738739 299.04737,16.4540922 299.04737,14.7027027 C299.04737,12.9513132 300.467696,11.5315315 302.219757,11.5315315 Z M279.147853,11.5315315 C280.899914,11.5315315 282.32024,12.9513132 282.32024,14.7027027 C282.32024,16.4540922 280.899914,17.8738739 279.147853,17.8738739 C277.395792,17.8738739 275.975467,16.4540922 275.975467,14.7027027 C275.975467,12.9513132 277.395792,11.5315315 279.147853,11.5315315 Z M106.995955,11.5315315 C108.748015,11.5315315 110.168341,12.9513132 110.168341,14.7027027 C110.168341,16.4540922 108.748015,17.8738739 106.995955,17.8738739 C105.243894,17.8738739 103.823568,16.4540922 103.823568,14.7027027 C103.823568,12.9513132 105.243894,11.5315315 106.995955,11.5315315 Z M118.531907,11.5315315 C120.283967,11.5315315 121.704293,12.9513132 121.704293,14.7027027 C121.704293,16.4540922 120.283967,17.8738739 118.531907,17.8738739 C116.779846,17.8738739 115.35952,16.4540922 115.35952,14.7027027 C115.35952,12.9513132 116.779846,11.5315315 118.531907,11.5315315 Z M83.9240506,11.5315315 C85.6761115,11.5315315 87.0964374,12.9513132 87.0964374,14.7027027 C87.0964374,16.4540922 85.6761115,17.8738739 83.9240506,17.8738739 C82.1719898,17.8738739 80.7516638,16.4540922 80.7516638,14.7027027 C80.7516638,12.9513132 82.1719898,11.5315315 83.9240506,11.5315315 Z M95.4600026,11.5315315 C97.2120635,11.5315315 98.6323894,12.9513132 98.6323894,14.7027027 C98.6323894,16.4540922 97.2120635,17.8738739 95.4600026,17.8738739 C93.7079418,17.8738739 92.2876158,16.4540922 92.2876158,14.7027027 C92.2876158,12.9513132 93.7079418,11.5315315 95.4600026,11.5315315 Z M49.3161947,11.5315315 C51.0682555,11.5315315 52.4885815,12.9513132 52.4885815,14.7027027 C52.4885815,16.4540922 51.0682555,17.8738739 49.3161947,17.8738739 C47.5641339,17.8738739 46.1438079,16.4540922 46.1438079,14.7027027 C46.1438079,12.9513132 47.5641339,11.5315315 49.3161947,11.5315315 Z M60.8521467,11.5315315 C62.6042075,11.5315315 64.0245335,12.9513132 64.0245335,14.7027027 C64.0245335,16.4540922 62.6042075,17.8738739 60.8521467,17.8738739 C59.1000858,17.8738739 57.6797599,16.4540922 57.6797599,14.7027027 C57.6797599,12.9513132 59.1000858,11.5315315 60.8521467,11.5315315 Z M3.17238679,11.5315315 C4.92444764,11.5315315 6.34477359,12.9513132 6.34477359,14.7027027 C6.34477359,16.4540922 4.92444764,17.8738739 3.17238679,17.8738739 C1.42032595,17.8738739 -1.56319402e-13,16.4540922 -1.56319402e-13,14.7027027 C-1.56319402e-13,12.9513132 1.42032595,11.5315315 3.17238679,11.5315315 Z M26.2442907,11.5315315 C27.9963516,11.5315315 29.4166775,12.9513132 29.4166775,14.7027027 C29.4166775,16.4540922 27.9963516,17.8738739 26.2442907,17.8738739 C24.4922299,17.8738739 23.071904,16.4540922 23.071904,14.7027027 C23.071904,12.9513132 24.4922299,11.5315315 26.2442907,11.5315315 Z M141.603811,11.5315315 C143.355871,11.5315315 144.776197,12.9513132 144.776197,14.7027027 C144.776197,16.4540922 143.355871,17.8738739 141.603811,17.8738739 C139.85175,17.8738739 138.431424,16.4540922 138.431424,14.7027027 C138.431424,12.9513132 139.85175,11.5315315 141.603811,11.5315315 Z M164.675714,11.5315315 C166.427775,11.5315315 167.848101,12.9513132 167.848101,14.7027027 C167.848101,16.4540922 166.427775,17.8738739 164.675714,17.8738739 C162.923654,17.8738739 161.503328,16.4540922 161.503328,14.7027027 C161.503328,12.9513132 162.923654,11.5315315 164.675714,11.5315315 Z M153.139762,11.5315315 C154.891823,11.5315315 156.312149,12.9513132 156.312149,14.7027027 C156.312149,16.4540922 154.891823,17.8738739 153.139762,17.8738739 C151.387702,17.8738739 149.967376,16.4540922 149.967376,14.7027027 C149.967376,12.9513132 151.387702,11.5315315 153.139762,11.5315315 Z M187.747618,11.5315315 C189.499679,11.5315315 190.920005,12.9513132 190.920005,14.7027027 C190.920005,16.4540922 189.499679,17.8738739 187.747618,17.8738739 C185.995558,17.8738739 184.575232,16.4540922 184.575232,14.7027027 C184.575232,12.9513132 185.995558,11.5315315 187.747618,11.5315315 Z M176.211666,11.5315315 C177.963727,11.5315315 179.384053,12.9513132 179.384053,14.7027027 C179.384053,16.4540922 177.963727,17.8738739 176.211666,17.8738739 C174.459606,17.8738739 173.03928,16.4540922 173.03928,14.7027027 C173.03928,12.9513132 174.459606,11.5315315 176.211666,11.5315315 Z M199.28357,11.5315315 C201.035631,11.5315315 202.455957,12.9513132 202.455957,14.7027027 C202.455957,16.4540922 201.035631,17.8738739 199.28357,17.8738739 C197.53151,17.8738739 196.111184,16.4540922 196.111184,14.7027027 C196.111184,12.9513132 197.53151,11.5315315 199.28357,11.5315315 Z M14.7083388,11.5315315 C16.4603996,11.5315315 17.8807256,12.9513132 17.8807256,14.7027027 C17.8807256,16.4540922 16.4603996,17.8738739 14.7083388,17.8738739 C12.9562779,17.8738739 11.535952,16.4540922 11.535952,14.7027027 C11.535952,12.9513132 12.9562779,11.5315315 14.7083388,11.5315315 Z M209.932141,11.5315315 C211.684202,11.5315315 213.104528,12.9513132 213.104528,14.7027027 C213.104528,16.4540922 211.684202,17.8738739 209.932141,17.8738739 C208.180081,17.8738739 206.759755,16.4540922 206.759755,14.7027027 C206.759755,12.9513132 208.180081,11.5315315 209.932141,11.5315315 Z M233.004045,11.5315315 C234.756106,11.5315315 236.176432,12.9513132 236.176432,14.7027027 C236.176432,16.4540922 234.756106,17.8738739 233.004045,17.8738739 C231.251985,17.8738739 229.831659,16.4540922 229.831659,14.7027027 C229.831659,12.9513132 231.251985,11.5315315 233.004045,11.5315315 Z M221.468093,11.5315315 C223.220154,11.5315315 224.64048,12.9513132 224.64048,14.7027027 C224.64048,16.4540922 223.220154,17.8738739 221.468093,17.8738739 C219.716033,17.8738739 218.295707,16.4540922 218.295707,14.7027027 C218.295707,12.9513132 219.716033,11.5315315 221.468093,11.5315315 Z M256.075949,11.5315315 C257.82801,11.5315315 259.248336,12.9513132 259.248336,14.7027027 C259.248336,16.4540922 257.82801,17.8738739 256.075949,17.8738739 C254.323889,17.8738739 252.903563,16.4540922 252.903563,14.7027027 C252.903563,12.9513132 254.323889,11.5315315 256.075949,11.5315315 Z M244.539997,11.5315315 C246.292058,11.5315315 247.712384,12.9513132 247.712384,14.7027027 C247.712384,16.4540922 246.292058,17.8738739 244.539997,17.8738739 C242.787937,17.8738739 241.367611,16.4540922 241.367611,14.7027027 C241.367611,12.9513132 242.787937,11.5315315 244.539997,11.5315315 Z M267.611901,11.5315315 C269.363962,11.5315315 270.784288,12.9513132 270.784288,14.7027027 C270.784288,16.4540922 269.363962,17.8738739 267.611901,17.8738739 C265.85984,17.8738739 264.439515,16.4540922 264.439515,14.7027027 C264.439515,12.9513132 265.85984,11.5315315 267.611901,11.5315315 Z M37.7802427,11.5315315 C39.5323036,11.5315315 40.9526295,12.9513132 40.9526295,14.7027027 C40.9526295,16.4540922 39.5323036,17.8738739 37.7802427,17.8738739 C36.0281819,17.8738739 34.6078559,16.4540922 34.6078559,14.7027027 C34.6078559,12.9513132 36.0281819,11.5315315 37.7802427,11.5315315 Z M72.3880987,11.5315315 C74.1401595,11.5315315 75.5604854,12.9513132 75.5604854,14.7027027 C75.5604854,16.4540922 74.1401595,17.8738739 72.3880987,17.8738739 C70.6360378,17.8738739 69.2157119,16.4540922 69.2157119,14.7027027 C69.2157119,12.9513132 70.6360378,11.5315315 72.3880987,11.5315315 Z M336.827613,11.5315315 C338.579674,11.5315315 340,12.9513132 340,14.7027027 C340,16.4540922 338.579674,17.8738739 336.827613,17.8738739 C335.075552,17.8738739 333.655226,16.4540922 333.655226,14.7027027 C333.655226,12.9513132 335.075552,11.5315315 336.827613,11.5315315 Z M267.611901,7.10542736e-15 C269.363962,7.10542736e-15 270.784288,1.41978169 270.784288,3.17117117 C270.784288,4.92256065 269.363962,6.34234234 267.611901,6.34234234 C265.85984,6.34234234 264.439515,4.92256065 264.439515,3.17117117 C264.439515,1.41978169 265.85984,7.10542736e-15 267.611901,7.10542736e-15 Z M244.539997,7.10542736e-15 C246.292058,7.10542736e-15 247.712384,1.41978169 247.712384,3.17117117 C247.712384,4.92256065 246.292058,6.34234234 244.539997,6.34234234 C242.787937,6.34234234 241.367611,4.92256065 241.367611,3.17117117 C241.367611,1.41978169 242.787937,7.10542736e-15 244.539997,7.10542736e-15 Z M256.075949,7.10542736e-15 C257.82801,7.10542736e-15 259.248336,1.41978169 259.248336,3.17117117 C259.248336,4.92256065 257.82801,6.34234234 256.075949,6.34234234 C254.323889,6.34234234 252.903563,4.92256065 252.903563,3.17117117 C252.903563,1.41978169 254.323889,7.10542736e-15 256.075949,7.10542736e-15 Z M221.468093,7.10542736e-15 C223.220154,7.10542736e-15 224.64048,1.41978169 224.64048,3.17117117 C224.64048,4.92256065 223.220154,6.34234234 221.468093,6.34234234 C219.716033,6.34234234 218.295707,4.92256065 218.295707,3.17117117 C218.295707,1.41978169 219.716033,7.10542736e-15 221.468093,7.10542736e-15 Z M233.004045,7.10542736e-15 C234.756106,7.10542736e-15 236.176432,1.41978169 236.176432,3.17117117 C236.176432,4.92256065 234.756106,6.34234234 233.004045,6.34234234 C231.251985,6.34234234 229.831659,4.92256065 229.831659,3.17117117 C229.831659,1.41978169 231.251985,7.10542736e-15 233.004045,7.10542736e-15 Z M209.932141,7.10542736e-15 C211.684202,7.10542736e-15 213.104528,1.41978169 213.104528,3.17117117 C213.104528,4.92256065 211.684202,6.34234234 209.932141,6.34234234 C208.180081,6.34234234 206.759755,4.92256065 206.759755,3.17117117 C206.759755,1.41978169 208.180081,7.10542736e-15 209.932141,7.10542736e-15 Z M72.3880987,7.10542736e-15 C74.1401595,7.10542736e-15 75.5604854,1.41978169 75.5604854,3.17117117 C75.5604854,4.92256065 74.1401595,6.34234234 72.3880987,6.34234234 C70.6360378,6.34234234 69.2157119,4.92256065 69.2157119,3.17117117 C69.2157119,1.41978169 70.6360378,7.10542736e-15 72.3880987,7.10542736e-15 Z M95.4600026,7.10542736e-15 C97.2120635,7.10542736e-15 98.6323894,1.41978169 98.6323894,3.17117117 C98.6323894,4.92256065 97.2120635,6.34234234 95.4600026,6.34234234 C93.7079418,6.34234234 92.2876158,4.92256065 92.2876158,3.17117117 C92.2876158,1.41978169 93.7079418,7.10542736e-15 95.4600026,7.10542736e-15 Z M83.9240506,7.10542736e-15 C85.6761115,7.10542736e-15 87.0964374,1.41978169 87.0964374,3.17117117 C87.0964374,4.92256065 85.6761115,6.34234234 83.9240506,6.34234234 C82.1719898,6.34234234 80.7516638,4.92256065 80.7516638,3.17117117 C80.7516638,1.41978169 82.1719898,7.10542736e-15 83.9240506,7.10542736e-15 Z M118.531907,7.10542736e-15 C120.283967,7.10542736e-15 121.704293,1.41978169 121.704293,3.17117117 C121.704293,4.92256065 120.283967,6.34234234 118.531907,6.34234234 C116.779846,6.34234234 115.35952,4.92256065 115.35952,3.17117117 C115.35952,1.41978169 116.779846,7.10542736e-15 118.531907,7.10542736e-15 Z M141.603811,7.10542736e-15 C143.355871,7.10542736e-15 144.776197,1.41978169 144.776197,3.17117117 C144.776197,4.92256065 143.355871,6.34234234 141.603811,6.34234234 C139.85175,6.34234234 138.431424,4.92256065 138.431424,3.17117117 C138.431424,1.41978169 139.85175,7.10542736e-15 141.603811,7.10542736e-15 Z M164.675714,7.10542736e-15 C166.427775,7.10542736e-15 167.848101,1.41978169 167.848101,3.17117117 C167.848101,4.92256065 166.427775,6.34234234 164.675714,6.34234234 C162.923654,6.34234234 161.503328,4.92256065 161.503328,3.17117117 C161.503328,1.41978169 162.923654,7.10542736e-15 164.675714,7.10542736e-15 Z M26.2442907,7.10542736e-15 C27.9963516,7.10542736e-15 29.4166775,1.41978169 29.4166775,3.17117117 C29.4166775,4.92256065 27.9963516,6.34234234 26.2442907,6.34234234 C24.4922299,6.34234234 23.071904,4.92256065 23.071904,3.17117117 C23.071904,1.41978169 24.4922299,7.10542736e-15 26.2442907,7.10542736e-15 Z M153.139762,7.10542736e-15 C154.891823,7.10542736e-15 156.312149,1.41978169 156.312149,3.17117117 C156.312149,4.92256065 154.891823,6.34234234 153.139762,6.34234234 C151.387702,6.34234234 149.967376,4.92256065 149.967376,3.17117117 C149.967376,1.41978169 151.387702,7.10542736e-15 153.139762,7.10542736e-15 Z M187.747618,7.10542736e-15 C189.499679,7.10542736e-15 190.920005,1.41978169 190.920005,3.17117117 C190.920005,4.92256065 189.499679,6.34234234 187.747618,6.34234234 C185.995558,6.34234234 184.575232,4.92256065 184.575232,3.17117117 C184.575232,1.41978169 185.995558,7.10542736e-15 187.747618,7.10542736e-15 Z M176.211666,7.10542736e-15 C177.963727,7.10542736e-15 179.384053,1.41978169 179.384053,3.17117117 C179.384053,4.92256065 177.963727,6.34234234 176.211666,6.34234234 C174.459606,6.34234234 173.03928,4.92256065 173.03928,3.17117117 C173.03928,1.41978169 174.459606,7.10542736e-15 176.211666,7.10542736e-15 Z M199.28357,7.10542736e-15 C201.035631,7.10542736e-15 202.455957,1.41978169 202.455957,3.17117117 C202.455957,4.92256065 201.035631,6.34234234 199.28357,6.34234234 C197.53151,6.34234234 196.111184,4.92256065 196.111184,3.17117117 C196.111184,1.41978169 197.53151,7.10542736e-15 199.28357,7.10542736e-15 Z M14.7083388,7.10542736e-15 C16.4603996,7.10542736e-15 17.8807256,1.41978169 17.8807256,3.17117117 C17.8807256,4.92256065 16.4603996,6.34234234 14.7083388,6.34234234 C12.9562779,6.34234234 11.535952,4.92256065 11.535952,3.17117117 C11.535952,1.41978169 12.9562779,7.10542736e-15 14.7083388,7.10542736e-15 Z M49.3161947,7.10542736e-15 C51.0682555,7.10542736e-15 52.4885815,1.41978169 52.4885815,3.17117117 C52.4885815,4.92256065 51.0682555,6.34234234 49.3161947,6.34234234 C47.5641339,6.34234234 46.1438079,4.92256065 46.1438079,3.17117117 C46.1438079,1.41978169 47.5641339,7.10542736e-15 49.3161947,7.10542736e-15 Z M37.7802427,7.10542736e-15 C39.5323036,7.10542736e-15 40.9526295,1.41978169 40.9526295,3.17117117 C40.9526295,4.92256065 39.5323036,6.34234234 37.7802427,6.34234234 C36.0281819,6.34234234 34.6078559,4.92256065 34.6078559,3.17117117 C34.6078559,1.41978169 36.0281819,7.10542736e-15 37.7802427,7.10542736e-15 Z M60.8521467,7.10542736e-15 C62.6042075,7.10542736e-15 64.0245335,1.41978169 64.0245335,3.17117117 C64.0245335,4.92256065 62.6042075,6.34234234 60.8521467,6.34234234 C59.1000858,6.34234234 57.6797599,4.92256065 57.6797599,3.17117117 C57.6797599,1.41978169 59.1000858,7.10542736e-15 60.8521467,7.10542736e-15 Z M130.067859,7.10542736e-15 C131.819919,7.10542736e-15 133.240245,1.41978169 133.240245,3.17117117 C133.240245,4.92256065 131.819919,6.34234234 130.067859,6.34234234 C128.315798,6.34234234 126.895472,4.92256065 126.895472,3.17117117 C126.895472,1.41978169 128.315798,7.10542736e-15 130.067859,7.10542736e-15 Z M106.995955,7.10542736e-15 C108.748015,7.10542736e-15 110.168341,1.41978169 110.168341,3.17117117 C110.168341,4.92256065 108.748015,6.34234234 106.995955,6.34234234 C105.243894,6.34234234 103.823568,4.92256065 103.823568,3.17117117 C103.823568,1.41978169 105.243894,7.10542736e-15 106.995955,7.10542736e-15 Z M3.17238679,7.10542736e-15 C4.92444764,7.10542736e-15 6.34477359,1.41978169 6.34477359,3.17117117 C6.34477359,4.92256065 4.92444764,6.34234234 3.17238679,6.34234234 C1.42032595,6.34234234 -1.56319402e-13,4.92256065 -1.56319402e-13,3.17117117 C-1.56319402e-13,1.41978169 1.42032595,7.10542736e-15 3.17238679,7.10542736e-15 Z M279.147853,7.10542736e-15 C280.899914,7.10542736e-15 282.32024,1.41978169 282.32024,3.17117117 C282.32024,4.92256065 280.899914,6.34234234 279.147853,6.34234234 C277.395792,6.34234234 275.975467,4.92256065 275.975467,3.17117117 C275.975467,1.41978169 277.395792,7.10542736e-15 279.147853,7.10542736e-15 Z M302.219757,7.10542736e-15 C303.971818,7.10542736e-15 305.392144,1.41978169 305.392144,3.17117117 C305.392144,4.92256065 303.971818,6.34234234 302.219757,6.34234234 C300.467696,6.34234234 299.04737,4.92256065 299.04737,3.17117117 C299.04737,1.41978169 300.467696,7.10542736e-15 302.219757,7.10542736e-15 Z M290.683805,7.10542736e-15 C292.435866,7.10542736e-15 293.856192,1.41978169 293.856192,3.17117117 C293.856192,4.92256065 292.435866,6.34234234 290.683805,6.34234234 C288.931744,6.34234234 287.511419,4.92256065 287.511419,3.17117117 C287.511419,1.41978169 288.931744,7.10542736e-15 290.683805,7.10542736e-15 Z M325.291661,7.10542736e-15 C327.043722,7.10542736e-15 328.464048,1.41978169 328.464048,3.17117117 C328.464048,4.92256065 327.043722,6.34234234 325.291661,6.34234234 C323.5396,6.34234234 322.119274,4.92256065 322.119274,3.17117117 C322.119274,1.41978169 323.5396,7.10542736e-15 325.291661,7.10542736e-15 Z M313.755709,7.10542736e-15 C315.50777,7.10542736e-15 316.928096,1.41978169 316.928096,3.17117117 C316.928096,4.92256065 315.50777,6.34234234 313.755709,6.34234234 C312.003648,6.34234234 310.583322,4.92256065 310.583322,3.17117117 C310.583322,1.41978169 312.003648,7.10542736e-15 313.755709,7.10542736e-15 Z M336.827613,7.10542736e-15 C338.579674,7.10542736e-15 340,1.41978169 340,3.17117117 C340,4.92256065 338.579674,6.34234234 336.827613,6.34234234 C335.075552,6.34234234 333.655226,4.92256065 333.655226,3.17117117 C333.655226,1.41978169 335.075552,7.10542736e-15 336.827613,7.10542736e-15 Z" id="Halftone" fill="#FF9500"></path>
    </g>
</svg>