<?xml version="1.0" encoding="utf-8"?>
<!-- Generator: Adobe Illustrator 24.1.3, SVG Export Plug-In . SVG Version: 6.00 Build 0)  -->
<svg version="1.1" id="Layer_1" xmlns="http://www.w3.org/2000/svg" xmlns:xlink="http://www.w3.org/1999/xlink" x="0px" y="0px"
	 viewBox="0 0 294.4 150.4" style="enable-background:new 0 0 294.4 150.4;" xml:space="preserve">
<style type="text/css">
	.st0{opacity:0.3;}
	.st1{fill:#7140BF;}
	.st2{fill:#FAFAFA;}
	.st3{fill:#1A1A1A;}
</style>
<g class="st0">
	<g>
		<g>
			<path class="st1" d="M147.2,54.4c-1.8,0-3.2-1.4-3.2-3.2v-48c0-1.8,1.4-3.2,3.2-3.2s3.2,1.4,3.2,3.2v48
				C150.4,53,149,54.4,147.2,54.4z"/>
		</g>
		<g>
			<path class="st1" d="M135.2,54.4c-1.8,0-3.2-1.4-3.2-3.2v-48c0-1.8,1.4-3.2,3.2-3.2s3.2,1.4,3.2,3.2v48
				C138.4,53,137,54.4,135.2,54.4z"/>
		</g>
		<g>
			<path class="st1" d="M123.2,54.4c-1.8,0-3.2-1.4-3.2-3.2v-48c0-1.8,1.4-3.2,3.2-3.2s3.2,1.4,3.2,3.2v48
				C126.4,53,125,54.4,123.2,54.4z"/>
		</g>
		<g>
			<path class="st1" d="M111.2,54.4c-1.8,0-3.2-1.4-3.2-3.2v-48c0-1.8,1.4-3.2,3.2-3.2s3.2,1.4,3.2,3.2v48
				C114.4,53,113,54.4,111.2,54.4z"/>
		</g>
		<g>
			<path class="st1" d="M99.2,54.4c-1.8,0-3.2-1.4-3.2-3.2v-48C96,1.4,97.4,0,99.2,0s3.2,1.4,3.2,3.2v48
				C102.4,53,101,54.4,99.2,54.4z"/>
		</g>
	</g>
	<path class="st2" d="M51.2,0h-48C1.4,0,0,1.4,0,3.2v48c0,1.8,1.4,3.2,3.2,3.2h48c1.8,0,3.2-1.4,3.2-3.2v-48C54.4,1.4,53,0,51.2,0z"
		/>
	<path class="st3" d="M291.2,96h-96c-1.8,0-3.2,1.4-3.2,3.2v48c0,1.8,1.4,3.2,3.2,3.2h96c1.8,0,3.2-1.4,3.2-3.2v-48
		C294.4,97.4,293,96,291.2,96z"/>
	<g>
		<g>
			<path class="st1" d="M204.2,125.8c-0.8,0-1.6-0.3-2.2-0.9c-1.3-1.2-1.4-3.2-0.2-4.5l11.1-12c1.2-1.3,3.5-1.3,4.7,0l8.8,9.5
				l8.8-9.5c0.6-0.7,1.5-1,2.3-1l0,0c0.9,0,1.7,0.4,2.3,1l8.8,9.5l8.8-9.5c1.2-1.3,3.5-1.3,4.7,0l8.8,9.5l8.8-9.5
				c1.2-1.3,3.2-1.4,4.5-0.2c1.3,1.2,1.4,3.2,0.2,4.5l-11.1,12c-1.2,1.3-3.5,1.3-4.7,0l-8.8-9.5l-8.8,9.5c-1.2,1.3-3.5,1.3-4.7,0
				l-8.8-9.5l-8.8,9.5c-0.6,0.7-1.5,1-2.3,1l0,0c-0.9,0-1.7-0.4-2.3-1l-8.8-9.5l-8.8,9.5C205.9,125.5,205.1,125.8,204.2,125.8z"/>
		</g>
		<g>
			<path class="st1" d="M204.2,139c-0.8,0-1.6-0.3-2.2-0.9c-1.3-1.2-1.4-3.2-0.2-4.5l11.1-12c1.2-1.3,3.5-1.3,4.7,0l8.8,9.5l8.8-9.5
				c0.6-0.7,1.5-1,2.3-1l0,0c0.9,0,1.7,0.4,2.3,1l8.8,9.5l8.8-9.5c1.2-1.3,3.5-1.3,4.7,0l8.8,9.5l8.8-9.5c1.2-1.3,3.2-1.4,4.5-0.2
				c1.3,1.2,1.4,3.2,0.2,4.5l-11.1,12c-1.2,1.3-3.5,1.3-4.7,0l-8.8-9.5l-8.8,9.5c-1.2,1.3-3.5,1.3-4.7,0l-8.8-9.5l-8.8,9.5
				c-0.6,0.7-1.5,1-2.3,1l0,0c-0.9,0-1.7-0.4-2.3-1l-8.8-9.5l-8.8,9.5C205.9,138.7,205.1,139,204.2,139z"/>
		</g>
	</g>
	<g>
		<g>
			<path class="st3" d="M204.2,29.8c-0.8,0-1.6-0.3-2.2-0.9c-1.3-1.2-1.4-3.2-0.2-4.5l11.1-12c1.2-1.3,3.5-1.3,4.7,0l8.8,9.5
				l8.8-9.5c0.6-0.7,1.5-1,2.3-1l0,0c0.9,0,1.7,0.4,2.3,1l8.8,9.5l8.8-9.5c1.2-1.3,3.5-1.3,4.7,0l8.8,9.5l8.8-9.5
				c1.2-1.3,3.2-1.4,4.5-0.2c1.3,1.2,1.4,3.2,0.2,4.5l-11.1,12c-1.2,1.3-3.5,1.3-4.7,0l-8.8-9.5l-8.8,9.5c-1.2,1.3-3.5,1.3-4.7,0
				l-8.8-9.5l-8.8,9.5c-0.6,0.7-1.5,1-2.3,1l0,0c-0.9,0-1.7-0.4-2.3-1l-8.8-9.5l-8.8,9.5C205.9,29.5,205.1,29.8,204.2,29.8z"/>
		</g>
		<g>
			<path class="st3" d="M204.2,43c-0.8,0-1.6-0.3-2.2-0.9c-1.3-1.2-1.4-3.2-0.2-4.5l11.1-12c1.2-1.3,3.5-1.3,4.7,0l8.8,9.5l8.8-9.5
				c0.6-0.7,1.5-1,2.3-1l0,0c0.9,0,1.7,0.4,2.3,1l8.8,9.5l8.8-9.5c1.2-1.3,3.5-1.3,4.7,0l8.8,9.5l8.8-9.5c1.2-1.3,3.2-1.4,4.5-0.2
				c1.3,1.2,1.4,3.2,0.2,4.5l-11.1,12c-1.2,1.3-3.5,1.3-4.7,0l-8.8-9.5l-8.8,9.5c-1.2,1.3-3.5,1.3-4.7,0l-8.8-9.5l-8.8,9.5
				c-0.6,0.7-1.5,1-2.3,1l0,0c-0.9,0-1.7-0.4-2.3-1l-8.8-9.5l-8.8,9.5C205.9,42.7,205.1,43,204.2,43z"/>
		</g>
	</g>
	<g>
		<g>
			<path class="st3" d="M99.2,54.4h-48c-1.8,0-3.2-1.4-3.2-3.2v-48C48,1.4,49.4,0,51.2,0h48c1.8,0,3.2,1.4,3.2,3.2v48
				C102.4,53,101,54.4,99.2,54.4z M54.4,48H96V6.4H54.4V48z"/>
		</g>
	</g>
	<g>
		<g>
			<path class="st1" d="M51.2,150.4c-1.8,0-3.2-1.4-3.2-3.2v-48c0-1.8,1.4-3.2,3.2-3.2s3.2,1.4,3.2,3.2v48
				C54.4,149,53,150.4,51.2,150.4z"/>
		</g>
		<g>
			<path class="st1" d="M39.2,150.4c-1.8,0-3.2-1.4-3.2-3.2v-48c0-1.8,1.4-3.2,3.2-3.2s3.2,1.4,3.2,3.2v48
				C42.4,149,41,150.4,39.2,150.4z"/>
		</g>
		<g>
			<path class="st1" d="M27.2,150.4c-1.8,0-3.2-1.4-3.2-3.2v-48c0-1.8,1.4-3.2,3.2-3.2s3.2,1.4,3.2,3.2v48
				C30.4,149,29,150.4,27.2,150.4z"/>
		</g>
		<g>
			<path class="st1" d="M15.2,150.4c-1.8,0-3.2-1.4-3.2-3.2v-48c0-1.8,1.4-3.2,3.2-3.2s3.2,1.4,3.2,3.2v48
				C18.4,149,17,150.4,15.2,150.4z"/>
		</g>
		<g>
			<path class="st1" d="M3.2,150.4c-1.8,0-3.2-1.4-3.2-3.2v-48C0,97.4,1.4,96,3.2,96s3.2,1.4,3.2,3.2v48C6.4,149,5,150.4,3.2,150.4z
				"/>
		</g>
	</g>
	<g>
		<g>
			<path class="st1" d="M99.2,150.4h-24c-1.8,0-3.2-1.4-3.2-3.2s1.4-3.2,3.2-3.2h24c1.8,0,3.2,1.4,3.2,3.2S101,150.4,99.2,150.4z"/>
		</g>
		<g>
			<path class="st1" d="M99.2,138.4h-24c-1.8,0-3.2-1.4-3.2-3.2s1.4-3.2,3.2-3.2h24c1.8,0,3.2,1.4,3.2,3.2S101,138.4,99.2,138.4z"/>
		</g>
		<g>
			<path class="st1" d="M99.2,126.4h-24c-1.8,0-3.2-1.4-3.2-3.2s1.4-3.2,3.2-3.2h24c1.8,0,3.2,1.4,3.2,3.2S101,126.4,99.2,126.4z"/>
		</g>
		<g>
			<path class="st1" d="M99.2,114.4h-24c-1.8,0-3.2-1.4-3.2-3.2s1.4-3.2,3.2-3.2h24c1.8,0,3.2,1.4,3.2,3.2S101,114.4,99.2,114.4z"/>
		</g>
		<g>
			<path class="st1" d="M99.2,102.4h-24c-1.8,0-3.2-1.4-3.2-3.2s1.4-3.2,3.2-3.2h24c1.8,0,3.2,1.4,3.2,3.2S101,102.4,99.2,102.4z"/>
		</g>
	</g>
</g>
</svg>
