<?xml version="1.0" encoding="utf-8"?>
<!-- Generator: Adobe Illustrator 24.1.3, SVG Export Plug-In . SVG Version: 6.00 Build 0)  -->
<svg version="1.1" id="Layer_1" xmlns="http://www.w3.org/2000/svg" xmlns:xlink="http://www.w3.org/1999/xlink" x="0px" y="0px"
	 viewBox="0 0 301.4 166.4" style="enable-background:new 0 0 301.4 166.4;" xml:space="preserve">
<style type="text/css">
	.st0{opacity:0.2;}
	.st1{fill:#1A1A1A;}
	.st2{fill:#FAFAFA;}
	.st3{fill:#FFBF00;}
	.st4{fill-rule:evenodd;clip-rule:evenodd;fill:#1A1A1A;}
	.st5{fill-rule:evenodd;clip-rule:evenodd;fill:#FFBF00;}
	.st6{fill-rule:evenodd;clip-rule:evenodd;fill:#FAFAFA;}
</style>
<g class="st0">
	<g>
		<g>
			<path class="st1" d="M245.2,166.4h-27c-1.2,0-2.2-1-2.2-2.2v-27c0-1.2,1-2.2,2.2-2.2h27c1.2,0,2.2,1,2.2,2.2v27
				C247.4,165.4,246.4,166.4,245.2,166.4z M220.4,162H243v-22.6h-22.6V162z"/>
		</g>
		<g>
			<g>
				<path class="st1" d="M274.4,112.7H270v-2.5c0-1.2,1-2.2,2.2-2.2h2.5v4.4h-0.3V112.7z"/>
			</g>
			<g>
				<path class="st1" d="M292.3,112.4h-4.4V108h4.4V112.4z M283.5,112.4h-4.4V108h4.4V112.4z"/>
			</g>
			<g>
				<path class="st1" d="M301.4,112.7H297v-0.3h-0.3V108h2.5c1.2,0,2.2,1,2.2,2.2V112.7z"/>
			</g>
			<g>
				<path class="st1" d="M301.4,130.3H297v-4.4h4.4V130.3z M301.4,121.5H297v-4.4h4.4V121.5z"/>
			</g>
			<g>
				<path class="st1" d="M299.2,139.4h-2.5V135h0.3v-0.3h4.4v2.5C301.4,138.4,300.4,139.4,299.2,139.4z"/>
			</g>
			<g>
				<path class="st1" d="M292.3,139.4h-4.4V135h4.4V139.4z M283.5,139.4h-4.4V135h4.4V139.4z"/>
			</g>
			<g>
				<path class="st1" d="M274.7,139.4h-2.5c-1.2,0-2.2-1-2.2-2.2v-2.5h4.4v0.3h0.3V139.4z"/>
			</g>
			<g>
				<path class="st1" d="M274.4,130.3H270v-4.4h4.4V130.3z M274.4,121.5H270v-4.4h4.4V121.5z"/>
			</g>
		</g>
		<g>
			<g>
				<path class="st1" d="M112.4,112.7H108v-2.5c0-1.2,1-2.2,2.2-2.2h2.5v4.4h-0.3V112.7z"/>
			</g>
			<g>
				<path class="st1" d="M183.7,112.4h-5.1V108h5.1V112.4z M173.5,112.4h-5.1V108h5.1V112.4z M163.4,112.4h-5.1V108h5.1V112.4z
					 M153.3,112.4h-5.1V108h5.1V112.4z M143.1,112.4h-5.1V108h5.1V112.4z M133,112.4h-5.1V108h5.1V112.4z M122.9,112.4h-5.1V108h5.1
					V112.4z"/>
			</g>
			<g>
				<path class="st1" d="M193.4,112.7H189v-0.3h-0.3V108h2.5c1.2,0,2.2,1,2.2,2.2V112.7z"/>
			</g>
			<g>
				<path class="st1" d="M193.4,130.3H189v-4.4h4.4V130.3z M193.4,121.5H189v-4.4h4.4V121.5z"/>
			</g>
			<g>
				<path class="st1" d="M191.2,139.4h-2.5V135h0.3v-0.3h4.4v2.5C193.4,138.4,192.4,139.4,191.2,139.4z"/>
			</g>
			<g>
				<path class="st1" d="M183.7,139.4h-5.1V135h5.1V139.4z M173.5,139.4h-5.1V135h5.1V139.4z M163.4,139.4h-5.1V135h5.1V139.4z
					 M153.3,139.4h-5.1V135h5.1V139.4z M143.1,139.4h-5.1V135h5.1V139.4z M133,139.4h-5.1V135h5.1V139.4z M122.9,139.4h-5.1V135h5.1
					V139.4z"/>
			</g>
			<g>
				<path class="st1" d="M112.7,139.4h-2.5c-1.2,0-2.2-1-2.2-2.2v-2.5h4.4v0.3h0.3V139.4z"/>
			</g>
			<g>
				<path class="st1" d="M112.4,130.3H108v-4.4h4.4V130.3z M112.4,121.5H108v-4.4h4.4V121.5z"/>
			</g>
		</g>
		<g>
			<path class="st2" d="M262.1,147.6v6.2l-5.1-3.1L262.1,147.6 M265.1,142.3l-13.8,8.4l13.8,8.4V142.3L265.1,142.3z"/>
		</g>
		<g>
			<path class="st3" d="M56.2,166.4h-27c-1.2,0-2.2-1-2.2-2.2v-54c0-1.2,1-2.2,2.2-2.2h27c1.2,0,2.2,1,2.2,2.2v54
				C58.4,165.4,57.4,166.4,56.2,166.4z M31.4,162H54v-49.6H31.4V162z"/>
		</g>
		<g>
			<path class="st2" d="M218.2,139.4h-27c-1.2,0-2.2-1-2.2-2.2v-27c0-1.2,1-2.2,2.2-2.2h27c1.2,0,2.2,1,2.2,2.2v27
				C220.4,138.4,219.4,139.4,218.2,139.4z M193.4,135H216v-22.6h-22.6V135z"/>
		</g>
		<path class="st3" d="M272.2,108h-27c-1.2,0-2.2,1-2.2,2.2v27c0,1.2,1,2.2,2.2,2.2h27c1.2,0,2.2-1,2.2-2.2v-27
			C274.4,109,273.4,108,272.2,108z"/>
		<g>
			<path class="st3" d="M201.3,120.6l5.1,3.1l-5.1,3.1V120.6 M198.3,115.3v16.9l13.8-8.4L198.3,115.3L198.3,115.3z"/>
		</g>
		<g>
			<path class="st1" d="M12.3,120.6l5.1,3.1l-5.1,3.1V120.6 M9.3,115.3v16.9l13.8-8.4L9.3,115.3L9.3,115.3z"/>
		</g>
		<path class="st1" d="M29.2,135h-27C1,135,0,136,0,137.2v27c0,1.2,1,2.2,2.2,2.2h27c1.2,0,2.2-1,2.2-2.2v-27
			C31.4,136,30.4,135,29.2,135z"/>
		<path class="st1" d="M110.2,108h-54c-1.2,0-2.2,1-2.2,2.2v27c0,1.2,1,2.2,2.2,2.2h54c1.2,0,2.2-1,2.2-2.2v-27
			C112.4,109,111.4,108,110.2,108z"/>
		<g>
			<path class="st1" d="M164.2,166.4h-27c-1.2,0-2.2-1-2.2-2.2v-27c0-1.2,1-2.2,2.2-2.2h27c1.2,0,2.2,1,2.2,2.2v27
				C166.4,165.4,165.4,166.4,164.2,166.4z M139.4,162H162v-22.6h-22.6V162z"/>
		</g>
		<g>
			<path class="st2" d="M154.1,120.6v6.2l-5.1-3.1L154.1,120.6 M157.1,115.3l-13.8,8.4l13.8,8.4V115.3L157.1,115.3z"/>
		</g>
		<g>
			<polygon class="st4" points="258.7,131.1 250.3,117.3 267.2,117.3 			"/>
		</g>
		<g>
			<polygon class="st5" points="123.7,158.1 115.3,144.3 132.2,144.3 			"/>
		</g>
		<g>
			<path class="st3" d="M110.2,166.4h-27c-1.2,0-2.2-1-2.2-2.2v-27c0-1.2,1-2.2,2.2-2.2h27c1.2,0,2.2,1,2.2,2.2v27
				C112.4,165.4,111.4,166.4,110.2,166.4z M85.4,162H108v-22.6H85.4V162z"/>
		</g>
		<g>
			<polygon class="st6" points="69.7,131.1 61.3,117.3 78.2,117.3 			"/>
		</g>
	</g>
	<g>
		<g>
			<path class="st1" d="M83.2,31.4h-27c-1.2,0-2.2-1-2.2-2.2v-27C54,1,55,0,56.2,0h27c1.2,0,2.2,1,2.2,2.2v27
				C85.4,30.4,84.4,31.4,83.2,31.4z M58.4,27H81V4.4H58.4V27z"/>
		</g>
		<path class="st1" d="M191.2,27h-27c-1.2,0-2.2,1-2.2,2.2v27c0,1.2,1,2.2,2.2,2.2h27c1.2,0,2.2-1,2.2-2.2v-27
			C193.4,28,192.4,27,191.2,27z"/>
		<g>
			<g>
				<path class="st1" d="M58.4,31.7H54v-2.5c0-1.2,1-2.2,2.2-2.2h2.5v4.4h-0.3V31.7z"/>
			</g>
			<g>
				<path class="st1" d="M76.3,31.4h-4.4V27h4.4V31.4z M67.5,31.4h-4.4V27h4.4V31.4z"/>
			</g>
			<g>
				<path class="st1" d="M85.4,31.7H81v-0.3h-0.3V27h2.5c1.2,0,2.2,1,2.2,2.2V31.7z"/>
			</g>
			<g>
				<path class="st1" d="M85.4,49.3H81v-4.4h4.4V49.3z M85.4,40.5H81v-4.4h4.4V40.5z"/>
			</g>
			<g>
				<path class="st1" d="M83.2,58.4h-2.5V54H81v-0.3h4.4v2.5C85.4,57.4,84.4,58.4,83.2,58.4z"/>
			</g>
			<g>
				<path class="st1" d="M76.3,58.4h-4.4V54h4.4V58.4z M67.5,58.4h-4.4V54h4.4V58.4z"/>
			</g>
			<g>
				<path class="st1" d="M58.7,58.4h-2.5c-1.2,0-2.2-1-2.2-2.2v-2.5h4.4V54h0.3V58.4z"/>
			</g>
			<g>
				<path class="st1" d="M58.4,49.3H54v-4.4h4.4V49.3z M58.4,40.5H54v-4.4h4.4V40.5z"/>
			</g>
		</g>
		<path class="st1" d="M164.2,0h-27C136,0,135,1,135,2.2v54c0,1.2,1,2.2,2.2,2.2h27c1.2,0,2.2-1,2.2-2.2v-54
			C166.4,1,165.4,0,164.2,0z"/>
		<g>
			<path class="st2" d="M110.2,58.4h-27c-1.2,0-2.2-1-2.2-2.2v-27c0-1.2,1-2.2,2.2-2.2h27c1.2,0,2.2,1,2.2,2.2v27
				C112.4,57.4,111.4,58.4,110.2,58.4z M85.4,54H108V31.4H85.4V54z"/>
		</g>
		<g>
			<path class="st3" d="M29.2,31.4h-27c-1.2,0-2.2-1-2.2-2.2v-27C0,1,1,0,2.2,0h27c1.2,0,2.2,1,2.2,2.2v27
				C31.4,30.4,30.4,31.4,29.2,31.4z M4.4,27H27V4.4H4.4V27z"/>
		</g>
		<path class="st1" d="M56.2,27h-27C28,27,27,28,27,29.2v27c0,1.2,1,2.2,2.2,2.2h27c1.2,0,2.2-1,2.2-2.2v-27
			C58.4,28,57.4,27,56.2,27z"/>
		<g>
			<path class="st2" d="M12.3,39.6l5.1,3.1l-5.1,3.1V39.6 M9.3,34.3v16.9l13.8-8.4L9.3,34.3L9.3,34.3z"/>
		</g>
		<g>
			<path class="st1" d="M93.3,39.6l5.1,3.1l-5.1,3.1V39.6 M90.3,34.3v16.9l13.8-8.4L90.3,34.3L90.3,34.3z"/>
		</g>
		<g>
			<polygon class="st4" points="96.7,23.1 88.3,9.3 105.2,9.3 			"/>
		</g>
		<g>
			<path class="st3" d="M289.1,39.6v6.2l-5.1-3.1L289.1,39.6 M292.1,34.3l-13.8,8.4l13.8,8.4V34.3L292.1,34.3z"/>
		</g>
		<g>
			<polygon class="st5" points="177.7,23.1 169.3,9.3 186.2,9.3 			"/>
		</g>
		<g>
			<polygon class="st6" points="177.7,50.1 169.3,36.3 186.2,36.3 			"/>
		</g>
		<g>
			<path class="st2" d="M272.2,31.4h-27c-1.2,0-2.2-1-2.2-2.2v-27c0-1.2,1-2.2,2.2-2.2h27c1.2,0,2.2,1,2.2,2.2v27
				C274.4,30.4,273.4,31.4,272.2,31.4z M247.4,27H270V4.4h-22.6V27z"/>
		</g>
		<path class="st3" d="M137.2,27h-27c-1.2,0-2.2,1-2.2,2.2v27c0,1.2,1,2.2,2.2,2.2h27c1.2,0,2.2-1,2.2-2.2v-27
			C139.4,28,138.4,27,137.2,27z"/>
		<g>
			<path class="st3" d="M245.2,58.4h-54c-1.2,0-2.2-1-2.2-2.2v-27c0-1.2,1-2.2,2.2-2.2h54c1.2,0,2.2,1,2.2,2.2v27
				C247.4,57.4,246.4,58.4,245.2,58.4z M193.4,54H243V31.4h-49.6V54z"/>
		</g>
		<path class="st1" d="M272.2,27h-27c-1.2,0-2.2,1-2.2,2.2v27c0,1.2,1,2.2,2.2,2.2h27c1.2,0,2.2-1,2.2-2.2v-27
			C274.4,28,273.4,27,272.2,27z"/>
		<g>
			<g>
				<path class="st1" d="M193.4,4.7H189V2.2c0-1.2,1-2.2,2.2-2.2h2.5v4.4h-0.3V4.7z"/>
			</g>
			<g>
				<path class="st1" d="M211.3,4.4h-4.4V0h4.4V4.4z M202.5,4.4h-4.4V0h4.4V4.4z"/>
			</g>
			<g>
				<path class="st1" d="M220.4,4.7H216V4.4h-0.3V0h2.5c1.2,0,2.2,1,2.2,2.2V4.7z"/>
			</g>
			<g>
				<path class="st1" d="M220.4,22.3H216v-4.4h4.4V22.3z M220.4,13.5H216V9.1h4.4V13.5z"/>
			</g>
			<g>
				<path class="st1" d="M218.2,31.4h-2.5V27h0.3v-0.3h4.4v2.5C220.4,30.4,219.4,31.4,218.2,31.4z"/>
			</g>
			<g>
				<path class="st1" d="M211.3,31.4h-4.4V27h4.4V31.4z M202.5,31.4h-4.4V27h4.4V31.4z"/>
			</g>
			<g>
				<path class="st1" d="M193.7,31.4h-2.5c-1.2,0-2.2-1-2.2-2.2v-2.5h4.4V27h0.3V31.4z"/>
			</g>
			<g>
				<path class="st1" d="M193.4,22.3H189v-4.4h4.4V22.3z M193.4,13.5H189V9.1h4.4V13.5z"/>
			</g>
		</g>
	</g>
</g>
</svg>
