<svg xmlns="http://www.w3.org/2000/svg" viewBox="0 0 64 64"><defs><style>.cls-1,.cls-2{fill:#10dad7;opacity:0.3;}.cls-1{fill-rule:evenodd;}.cls-3{fill:none;}</style></defs><g id="Layer_2" data-name="Layer 2"><g id="Layer_1-2" data-name="Layer 1"><path class="cls-1" d="M59,64H37a11,11,0,0,1,22,0Z"/><path class="cls-1" d="M27,64H5a11,11,0,0,1,22,0Z"/><path class="cls-1" d="M64,21V43a11,11,0,0,1,0-22Z"/><circle class="cls-2" cx="32" cy="32" r="11"/><path class="cls-1" d="M11,32A11,11,0,0,1,0,43V21A11,11,0,0,1,11,32Z"/><path class="cls-1" d="M59,0A11,11,0,0,1,48,11,11,11,0,0,1,37,0Z"/><path class="cls-1" d="M27,0A11,11,0,0,1,16,11,11,11,0,0,1,5,0Z"/><rect class="cls-3" width="64" height="64"/></g></g></svg>